<?xml version="1.0" encoding="utf-8"?>
<!-- Generator: Adobe Illustrator 16.0.0, SVG Export Plug-In . SVG Version: 6.00 Build 0)  -->
<!DOCTYPE svg PUBLIC "-//W3C//DTD SVG 1.1//EN" "http://www.w3.org/Graphics/SVG/1.1/DTD/svg11.dtd">
<svg version="1.1" id="Layer_1" xmlns="http://www.w3.org/2000/svg" xmlns:xlink="http://www.w3.org/1999/xlink" x="0px" y="0px"
	 width="200px" height="111px" viewBox="0 0 200 111" enable-background="new 0 0 200 111" xml:space="preserve">
<g>
	<path fill="#44351B" d="M10.377,101.902v-5.195h1.571c1.409,0,2.728-0.101,3.957-0.303c1.228-0.2,2.305-0.613,3.232-1.238
		c0.926-0.624,1.651-1.52,2.175-2.688c0.523-1.168,0.785-2.719,0.785-4.652V27.658c0-1.934-0.262-3.483-0.785-4.652
		c-0.524-1.167-1.249-2.063-2.175-2.688c-0.927-0.624-2.004-1.037-3.232-1.239c-1.229-0.2-2.548-0.302-3.957-0.302h-1.571v-5.195
		h36.005v5.195h-1.631c-1.37,0-2.679,0.102-3.927,0.302c-1.249,0.202-2.326,0.615-3.232,1.239s-1.631,1.521-2.175,2.688
		c-0.543,1.169-0.815,2.719-0.815,4.652v60.168c0,1.934,0.272,3.484,0.815,4.652c0.544,1.168,1.269,2.063,2.175,2.688
		c0.906,0.625,1.983,1.038,3.232,1.238c1.248,0.202,2.557,0.303,3.927,0.303h1.631v5.195H10.377z"/>
	<path fill="#44351B" d="M129.507,101.902v-5.195h0.423c1.329,0,2.527-0.091,3.594-0.272c1.067-0.181,1.974-0.543,2.719-1.087
		s1.339-1.329,1.783-2.356c0.441-1.026,0.703-2.386,0.785-4.077V22.825l-28.333,79.077h-6.706L75.077,23.066v64.76
		c0,1.934,0.201,3.484,0.604,4.652c0.402,1.168,0.997,2.063,1.782,2.688c0.785,0.625,1.731,1.038,2.839,1.238
		c1.107,0.202,2.346,0.303,3.715,0.303h0.362v5.195H55.806v-5.195h1.571c1.369,0,2.667-0.091,3.896-0.272
		c1.228-0.181,2.305-0.553,3.232-1.117c0.926-0.563,1.661-1.398,2.205-2.507c0.543-1.107,0.815-2.567,0.815-4.38V27.175
		c0-1.813-0.272-3.271-0.815-4.38c-0.544-1.107-1.279-1.964-2.205-2.567c-0.927-0.604-2.004-0.997-3.232-1.178
		c-1.229-0.182-2.528-0.272-3.896-0.272h-1.571v-5.195h28.212l25.614,70.74l25.372-70.74h27.426v5.195h-1.57
		c-1.41,0-2.729,0.102-3.957,0.302c-1.229,0.202-2.305,0.615-3.231,1.239s-1.651,1.521-2.175,2.688
		c-0.523,1.169-0.785,2.719-0.785,4.652v60.168c0,1.934,0.262,3.484,0.785,4.652s1.248,2.063,2.175,2.688
		c0.927,0.625,2.003,1.038,3.231,1.238c1.229,0.202,2.547,0.303,3.957,0.303h1.57v5.195H129.507z"/>
	<path fill="#44351B" d="M174.814,94.351c0-1.61,0.201-2.949,0.604-4.017s0.957-1.923,1.662-2.568
		c0.703-0.644,1.529-1.106,2.477-1.389c0.945-0.281,1.963-0.423,3.051-0.423c1.047,0,2.043,0.142,2.99,0.423
		c0.945,0.282,1.771,0.745,2.477,1.389c0.705,0.646,1.27,1.501,1.691,2.568c0.424,1.067,0.635,2.406,0.635,4.017
		c0,1.571-0.211,2.9-0.635,3.987c-0.422,1.087-0.986,1.954-1.691,2.598c-0.705,0.645-1.531,1.107-2.477,1.39
		c-0.947,0.281-1.943,0.423-2.99,0.423c-1.088,0-2.105-0.142-3.051-0.423c-0.947-0.282-1.773-0.745-2.477-1.39
		c-0.705-0.644-1.26-1.511-1.662-2.598S174.814,95.922,174.814,94.351z"/>
</g>
</svg>
