<?xml version="1.0" encoding="utf-8"?>
<!-- Generator: Adobe Illustrator 16.0.0, SVG Export Plug-In . SVG Version: 6.00 Build 0)  -->
<!DOCTYPE svg PUBLIC "-//W3C//DTD SVG 1.1//EN" "http://www.w3.org/Graphics/SVG/1.1/DTD/svg11.dtd">
<svg version="1.1" id="레이어_1" xmlns="http://www.w3.org/2000/svg" xmlns:xlink="http://www.w3.org/1999/xlink" x="0px"
	 y="0px" width="200px" height="200px" viewBox="0 0 200 200" enable-background="new 0 0 200 200" xml:space="preserve">
<g>
	<path fill="#FFFFFF" d="M196.633,59.979c-0.455-10.324-2.125-17.42-4.518-23.57c-2.467-6.527-6.264-12.372-11.234-17.231
		c-4.859-4.934-10.742-8.768-17.193-11.196C157.5,5.59,150.441,3.92,140.12,3.465c-10.401-0.494-13.702-0.607-40.082-0.607
		c-26.377,0-29.679,0.115-40.041,0.568C49.674,3.881,42.576,5.552,36.428,7.941c-6.529,2.468-12.373,6.263-17.232,11.235
		C14.262,24.036,10.43,29.919,8,36.371c-2.393,6.188-4.061,13.245-4.518,23.568c-0.494,10.399-0.607,13.701-0.607,40.08
		s0.113,29.681,0.568,40.043c0.457,10.322,2.127,17.42,4.519,23.568c2.468,6.528,6.3,12.373,11.233,17.23
		c4.859,4.935,10.742,8.769,17.193,11.197c6.188,2.391,13.246,4.061,23.57,4.516c10.359,0.457,13.664,0.568,40.042,0.568
		s29.681-0.111,40.042-0.568c10.322-0.455,17.422-2.125,23.568-4.516c13.057-5.05,23.379-15.373,28.428-28.429
		c2.391-6.187,4.063-13.246,4.518-23.569c0.455-10.361,0.568-13.664,0.568-40.041C197.125,73.641,197.086,70.339,196.633,59.979z
		 M179.137,139.303c-0.418,9.488-2.014,14.612-3.342,18.028c-3.266,8.463-9.98,15.181-18.445,18.446
		c-3.416,1.326-8.576,2.922-18.027,3.338c-10.248,0.457-13.321,0.568-39.244,0.568c-25.924,0-29.036-0.111-39.247-0.568
		c-9.488-0.416-14.613-2.012-18.028-3.338c-4.212-1.559-8.046-4.024-11.158-7.25c-3.227-3.151-5.693-6.946-7.25-11.159
		c-1.328-3.414-2.922-8.577-3.338-18.027c-0.457-10.248-0.57-13.321-0.57-39.246c0-25.922,0.113-29.034,0.57-39.243
		c0.416-9.488,2.01-14.613,3.338-18.029c1.557-4.213,4.023-8.045,7.289-11.159c3.147-3.226,6.943-5.692,11.156-7.248
		c3.416-1.329,8.579-2.922,18.028-3.34c10.249-0.455,13.323-0.569,39.245-0.569c25.961,0,29.033,0.115,39.244,0.569
		c9.488,0.418,14.613,2.012,18.029,3.34c4.211,1.556,8.045,4.022,11.156,7.248c3.227,3.151,5.693,6.946,7.25,11.159
		c1.328,3.416,2.924,8.578,3.342,18.029c0.455,10.248,0.568,13.321,0.568,39.243C179.705,126.02,179.592,129.055,179.137,139.303z"
		/>
	<path fill="#FFFFFF" d="M100,50.109c-27.553,0-49.91,22.354-49.91,49.91s22.357,49.908,49.91,49.908
		c27.557,0,49.91-22.354,49.91-49.908C149.91,72.464,127.557,50.109,100,50.109z M100,132.396c-17.875,0-32.375-14.5-32.375-32.377
		S82.125,67.645,100,67.645c17.878,0,32.376,14.5,32.376,32.375C132.376,117.896,117.878,132.396,100,132.396z"/>
	<path fill="#FFFFFF" d="M163.535,48.137c0,6.434-5.217,11.651-11.65,11.651c-6.436,0-11.652-5.218-11.652-11.651
		c0-6.436,5.217-11.65,11.652-11.65C158.32,36.484,163.535,41.701,163.535,48.137z"/>
</g>
</svg>
