<?xml version="1.0" encoding="utf-8"?>
<!-- Generator: Adobe Illustrator 16.0.0, SVG Export Plug-In . SVG Version: 6.00 Build 0)  -->
<!DOCTYPE svg PUBLIC "-//W3C//DTD SVG 1.1//EN" "http://www.w3.org/Graphics/SVG/1.1/DTD/svg11.dtd">
<svg version="1.1" id="Bold" xmlns="http://www.w3.org/2000/svg" xmlns:xlink="http://www.w3.org/1999/xlink" x="0px" y="0px"
	 width="200px" height="200px" viewBox="0 0 200 200" enable-background="new 0 0 200 200" xml:space="preserve">
<g>
	<path fill="#FFFFFF" d="M180.357,75.459h-17.891V93.27h-17.811v17.89h17.811v17.809h17.891v-17.809h17.809V93.27h-17.809V75.459z"
		/>
	<path fill="#FFFFFF" d="M63.187,161.354c35.405,0,58.924-24.852,58.924-59.93c0-4.018-0.416-7.117-0.998-10.209H63.197v21.09
		h34.824c-1.424,8.957-10.545,26.447-34.824,26.447c-20.918,0-37.999-17.328-37.999-38.752c0-21.425,17.073-38.759,37.999-38.759
		c11.968,0,19.919,5.104,24.443,9.456l16.655-15.984C93.57,44.676,79.761,38.646,63.189,38.646c-33.9,0-61.354,27.455-61.354,61.354
		C1.833,133.9,29.288,161.354,63.187,161.354L63.187,161.354z"/>
</g>
</svg>
